<?xml version="1.0" encoding="UTF-8"?>
<svg width="300px" height="285px" viewBox="0 0 300 285" version="1.1" xmlns="http://www.w3.org/2000/svg" xmlns:xlink="http://www.w3.org/1999/xlink">
    <title>paper-plane</title>
    <g id="Page-1" stroke="none" stroke-width="1" fill="none" fill-rule="evenodd">
        <g id="Artboard" transform="translate(-2600.000000, -3898.000000)" fill="#000000" fill-rule="nonzero">
            <g id="paper-plane" transform="translate(2600.000000, 3898.000000)">
                <path d="M105,218 L105,275.673719 C105,279.702673 107.659454,283.271529 111.597492,284.539903 C112.582001,284.85078 113.592083,285 114.589378,285 C117.581264,285 120.470863,283.632146 122.312024,281.194878 L157,235.284707 L105,218 Z" id="Path"></path>
                <path d="M296.062101,1.71773673 C293.18711,-0.295304351 289.412122,-0.567003147 286.287132,1.05083968 L5.03803972,146.162697 C1.71305045,147.879339 -0.249443221,151.386724 0.0255558912,155.079357 C0.313054963,158.784341 2.80054694,161.945927 6.33803552,163.143872 L84.5252832,189.548055 L251.037246,48.8821778 L122.187662,202.256148 L253.224739,246.506002 C254.199736,246.827101 255.224732,247 256.249729,247 C257.949724,247 259.637218,246.543052 261.124713,245.653856 C263.499706,244.221262 265.1122,241.813023 265.524699,239.108385 L299.899588,10.6343972 C300.412087,7.17641255 298.937091,3.74312776 296.062101,1.71773673 Z" id="Path"></path>
            </g>
        </g>
    </g>
</svg>