<?xml version="1.0" encoding="UTF-8"?>
<svg width="388px" height="388px" viewBox="0 0 388 388" version="1.1" xmlns="http://www.w3.org/2000/svg" xmlns:xlink="http://www.w3.org/1999/xlink">
    <title>004-info-button</title>
    <g id="Page-1" stroke="none" stroke-width="1" fill="none" fill-rule="evenodd">
        <g id="Artboard" transform="translate(-1588.000000, -3805.000000)" fill="#000000" fill-rule="nonzero">
            <g id="004-info-button" transform="translate(1588.000000, 3805.000000)">
                <path d="M331.187959,56.8183676 C255.425918,-18.9352384 132.588843,-18.9436733 56.8183676,56.8183676 C-18.9436733,132.580408 -18.9352384,255.417483 56.8183676,331.187959 C132.580408,406.93313 255.417483,406.941565 331.187959,331.187959 C406.941565,255.417483 406.93313,132.588843 331.187959,56.8183676 Z M219.299351,278.351906 C219.299351,292.328493 207.971315,303.656529 193.994728,303.656529 C180.018142,303.656529 168.690105,292.328493 168.690105,278.351906 L168.690105,177.133414 C168.690105,163.156828 180.018142,151.828792 193.994728,151.828792 C207.971315,151.828792 219.299351,163.156828 219.299351,177.133414 L219.299351,278.351906 Z M193.54768,133.879379 C178.972217,133.879379 169.255242,123.555093 169.558897,110.809998 C169.255242,97.4491571 178.972217,87.4369613 193.8429,87.4369613 C208.722019,87.4369613 218.135338,97.457592 218.447429,110.809998 C218.438994,123.555093 208.730454,133.879379 193.54768,133.879379 Z" id="Shape"></path>
            </g>
        </g>
    </g>
</svg>