<?xml version="1.0" encoding="UTF-8"?>
<svg width="461px" height="420px" viewBox="0 0 461 420" version="1.1" xmlns="http://www.w3.org/2000/svg" xmlns:xlink="http://www.w3.org/1999/xlink">
    <title>003-sort-down</title>
    <g id="Page-1" stroke="none" stroke-width="1" fill="none" fill-rule="evenodd">
        <g id="Artboard" transform="translate(-964.000000, -3789.000000)" fill="#000000" fill-rule="nonzero">
            <g id="003-sort-down" transform="translate(964.000125, 3789.609125)">
                <path d="M25.555,119.263 L283.081,119.263 L283.081,68.152 L25.555,68.152 C11.442,68.152 0,79.594 0,93.707 C0,107.82 11.442,119.263 25.555,119.263 Z" id="Path"></path>
                <path d="M25.555,221.82 L283.081,221.82 L283.081,170.709 L25.555,170.709 C11.442,170.709 0,182.151 0,196.265 C0,210.379 11.442,221.82 25.555,221.82 Z" id="Path"></path>
                <path d="M25.555,273.265 L25.555,273.266 C11.442,273.266 0,284.707 0,298.821 C0,312.935 11.442,324.376 25.555,324.376 L204.465,324.376 C202.444,318.152 201.377,311.587 201.377,304.853 C201.377,293.576 204.334,282.759 209.857,273.265 L25.555,273.265 L25.555,273.265 Z" id="Path"></path>
                <path d="M450.623,282.002 C438.003,269.381 417.54,269.381 404.919,282.002 L378.384,308.537 L378.384,32.317 C378.384,14.468 363.915,0 346.066,0 C328.217,0 313.748,14.469 313.748,32.317 L313.748,308.537 L287.213,282.002 C274.592,269.382 254.13,269.381 241.509,282.002 C228.888,294.623 228.888,315.085 241.509,327.706 L323.209,409.405 C335.805,422.005 356.293,422.048 368.923,409.405 L450.623,327.706 C463.243,315.085 463.244,294.623 450.623,282.002 Z" id="Path"></path>
            </g>
        </g>
    </g>
</svg>