<?xml version="1.0" encoding="UTF-8"?>
<svg width="377px" height="377px" viewBox="0 0 377 377" version="1.1" xmlns="http://www.w3.org/2000/svg" xmlns:xlink="http://www.w3.org/1999/xlink">
    <title>ShareScreen</title>
    <g id="Page-1" stroke="none" stroke-width="1" fill="none" fill-rule="evenodd">
        <g id="Artboard" transform="translate(-3093.000000, -3819.000000)">
            <g id="ShareScreen" transform="translate(3096.000000, 3822.000000)">
                <circle id="Oval" fill="#FFFFFF" cx="185.5" cy="185.5" r="168.5"></circle>
                <g id="paper-plane" transform="translate(101.000000, 106.000000)" fill="#4ABFBB" fill-rule="nonzero">
                    <path d="M59.15,122.105263 L59.15,154.72512 C59.15,157.003868 60.6625645,159.022389 62.9023236,159.739773 C63.4622633,159.915602 64.036747,160 64.6039587,160 C66.3055938,160 67.9490534,159.226351 68.9962134,157.847849 L88.725,131.881374 L59.15,122.105263 Z" id="Path"></path>
                    <path d="M166.78165,0.96629554 C165.162072,-0.166120496 163.035495,-0.318961924 161.275084,0.591139307 L2.83809571,82.2223566 C0.965018418,83.1880365 -0.140519681,85.1610804 0.0143964854,87.2383344 C0.176354296,89.3225357 1.57764144,91.1010541 3.57042668,91.7749458 L47.6159095,106.628354 L141.417649,27.498178 L68.8323827,113.777164 L142.649936,138.669475 C143.199184,138.850106 143.776599,138.947368 144.354014,138.947368 C145.311678,138.947368 146.2623,138.690317 147.100255,138.190109 C148.438168,137.384217 149.34654,136.029487 149.578914,134.50802 L168.943435,5.98227332 C169.232142,4.03701878 168.401228,2.10565891 166.78165,0.96629554 Z" id="Path"></path>
                </g>
                <circle id="Oval-Copy" stroke="#FFFFFF" stroke-width="6" cx="185.5" cy="185.5" r="185.5"></circle>
            </g>
        </g>
    </g>
</svg>