<?xml version="1.0" encoding="UTF-8"?>
<svg width="428px" height="428px" viewBox="0 0 428 428" version="1.1" xmlns="http://www.w3.org/2000/svg" xmlns:xlink="http://www.w3.org/1999/xlink">
    <title>001-hamburger</title>
    <g id="Page-1" stroke="none" stroke-width="1" fill="none" fill-rule="evenodd">
        <g id="Artboard" transform="translate(-434.000000, -3751.000000)" fill="#000000" fill-rule="nonzero">
            <g id="001-hamburger" transform="translate(434.666792, 3751.666792)">
                <path d="M0,384 C0,407.466667 19.2,426.666667 42.6666667,426.666667 L384,426.666667 C407.466667,426.666667 426.666667,407.466667 426.666667,384 L426.666667,341.333333 L0,341.333333 L0,384 Z" id="Path"></path>
                <path d="M394.666667,234.666667 L32,234.666667 C14.9333333,234.666667 0,249.6 0,266.666667 C0,283.733333 14.9333333,298.666667 32,298.666667 L394.666667,298.666667 C411.733333,298.666667 426.666667,283.733333 426.666667,266.666667 C426.666667,249.6 411.733333,234.666667 394.666667,234.666667 Z" id="Path"></path>
                <path d="M234.666667,0 L192,0 C85.3333333,0 0,85.3333333 0,192 L426.666667,192 C426.666667,85.3333333 341.333333,0 234.666667,0 Z M170.666667,149.333333 C157.866667,149.333333 149.333333,140.8 149.333333,128 C149.333333,115.2 157.866667,106.666667 170.666667,106.666667 C183.466667,106.666667 192,115.2 192,128 C192,140.8 183.466667,149.333333 170.666667,149.333333 Z M213.333333,85.3333333 C200.533333,85.3333333 192,76.8 192,64 C192,51.2 200.533333,42.6666667 213.333333,42.6666667 C226.133333,42.6666667 234.666667,51.2 234.666667,64 C234.666667,76.8 226.133333,85.3333333 213.333333,85.3333333 Z M256,149.333333 C243.2,149.333333 234.666667,140.8 234.666667,128 C234.666667,115.2 243.2,106.666667 256,106.666667 C268.8,106.666667 277.333333,115.2 277.333333,128 C277.333333,140.8 268.8,149.333333 256,149.333333 Z" id="Shape"></path>
            </g>
        </g>
    </g>
</svg>