<?xml version="1.0" encoding="UTF-8"?>
<svg width="321px" height="318px" viewBox="0 0 321 318" version="1.1" xmlns="http://www.w3.org/2000/svg" xmlns:xlink="http://www.w3.org/1999/xlink">
    <title>002-close</title>
    <g id="Page-1" stroke="none" stroke-width="1" fill="none" fill-rule="evenodd">
        <g id="Artboard" transform="translate(-2140.000000, -3840.000000)" fill="#000000" fill-rule="nonzero">
            <g id="002-close" transform="translate(2140.000625, 3840.844125)">
                <path d="M30.3905,316.739 C22.5305,317.196 14.8005,314.583 8.8305,309.451 C-2.9435,297.607 -2.9435,278.478 8.8305,266.634 L266.6425,8.821 C278.8885,-2.638 298.1045,-2.001 309.5635,10.245 C319.9255,21.319 320.5295,38.34 310.9775,50.12 L51.6465,309.451 C45.7535,314.509 38.1475,317.117 30.3905,316.739 Z" id="Path"></path>
                <path d="M287.8995,316.739 C279.9335,316.705 272.2985,313.543 266.6425,307.933 L8.8295,50.119 C-2.0785,37.381 -0.5955,18.211 12.1425,7.302 C23.5115,-2.434 40.2785,-2.434 51.6465,7.302 L310.9775,265.115 C323.2205,276.577 323.8535,295.794 312.3915,308.037 C311.9355,308.524 311.4645,308.995 310.9775,309.451 C304.6275,314.973 296.2705,317.612 287.8995,316.739 L287.8995,316.739 Z" id="Path"></path>
            </g>
        </g>
    </g>
</svg>